<svg width="59" height="53" viewBox="0 0 59 53" version="1.1" xmlns="http://www.w3.org/2000/svg" xmlns:xlink="http://www.w3.org/1999/xlink">
<title>Vector</title>
<desc>Created using Figma</desc>
<g id="Canvas" transform="translate(-500 -377)">
<g id="Vector">
<use xlink:href="#path0_fill" transform="matrix(0.392663 0 0 0.392662 500 377)" fill="#93233E"/>
</g>
</g>
<defs>
<path id="path0_fill" fill-rule="evenodd" d="M 28.9779 49.6512C 27.2586 50.5648 5.30424 63.0938 2.79139 64.5294C 0.675303 65.704 -0.118226 67.4006 0.0140288 68.5752L 0.0140288 78.8856C 0.0140288 81.2348 1.33658 82.4094 2.26236 82.9314L 24.349 95.3299C 25.5393 96.113 26.0683 96.635 26.5973 97.4181C 26.9941 98.2012 27.2586 98.9842 27.2586 100.42L 27.1264 125.478C 27.1264 126.522 27.5231 128.219 29.6392 129.393L 38.6326 134.483C 39.6906 135.136 41.5422 135.266 43.6583 134.092C 46.1711 132.656 68.1255 120.127 69.7126 119.213C 71.8286 118.039 72.0932 115.82 72.0932 115.168C 72.0932 114.515 72.0932 106.423 72.0932 106.423C 72.0932 102.247 67.7287 100.811 64.9514 102.378C 63.4966 103.161 42.2035 115.429 42.2035 115.429L 42.3357 97.1571C 42.3357 97.1571 42.3357 94.8079 41.5422 93.5028C 41.2777 92.9808 39.4261 89.979 39.4261 89.979C 39.4261 89.979 37.7068 86.9773 37.31 86.4552C 36.5165 85.1501 34.4004 83.9755 34.4004 83.9755L 18.5298 75.1008C 18.5298 75.1008 39.8229 62.9633 41.2777 62.0497C 44.055 60.4836 44.9808 56.0462 41.2777 53.958C 41.2777 53.958 34.2681 49.9122 33.6069 49.6512C 33.2101 49.3902 32.2843 48.9986 31.2263 48.9986C 30.6973 48.9986 29.9037 49.1291 28.9779 49.6512ZM 116.663 49.5207C 116.002 49.9122 108.992 53.8275 108.992 53.8275C 105.289 55.9157 106.215 60.3531 108.992 61.9192C 110.447 62.7023 131.74 74.9703 131.74 74.9703L 115.87 83.845C 115.87 83.845 113.754 85.0196 112.96 86.3247C 112.696 86.8467 110.844 89.8485 110.844 89.8485C 110.844 89.8485 109.125 92.8502 108.728 93.3723C 107.934 94.6774 107.934 97.0266 107.934 97.0266L 108.067 115.037C 108.067 115.037 86.7735 102.9 85.3187 101.986C 82.5413 100.42 78.1769 101.855 78.1769 106.032C 78.1769 106.032 78.1769 114.123 78.1769 114.776C 78.1769 115.429 78.4414 117.647 80.5575 118.822C 82.2768 119.735 104.231 132.264 106.744 133.7C 108.86 134.875 110.712 134.744 111.77 134.092L 120.763 129.002C 122.879 127.827 123.144 126.13 123.144 125.086L 123.011 100.028C 123.011 98.7232 123.276 97.9402 123.673 97.0266C 124.202 96.2435 124.731 95.7215 125.921 94.9384L 148.008 82.5399C 148.933 82.0178 150.256 80.8432 150.256 78.4941L 150.256 68.1837C 150.256 67.0091 149.462 65.3125 147.479 64.1379C 144.966 62.7023 123.011 50.1732 121.292 49.2597C 120.499 48.7376 119.573 48.6071 118.912 48.6071C 117.986 48.9986 117.06 49.3902 116.663 49.5207ZM 99.8668 0.579154L 78.0446 13.2387C 76.8543 13.8912 76.0608 14.1523 75.135 14.1523C 74.2092 14.1523 73.4157 13.8912 72.2254 13.2387L 50.271 0.579154C 49.3452 0.0571112 47.6259 -0.464931 45.6421 0.709665L 36.6487 5.93009C 35.5907 6.58265 34.4004 8.01827 34.4004 10.3675L 34.4004 40.1239C 34.4004 42.6036 36.1197 43.9087 36.781 44.1697C 37.4423 44.5613 44.4518 48.6071 44.4518 48.6071C 48.1549 50.6953 51.5936 47.6935 51.5936 44.5613C 51.5936 42.8646 51.5936 18.5896 51.5936 18.5896L 67.332 27.7254C 67.332 27.7254 69.448 28.9 71.0351 28.9L 79.2349 28.9C 80.822 28.9 82.9381 27.7254 82.9381 27.7254L 98.6765 18.5896C 98.6765 18.5896 98.6765 42.8646 98.6765 44.5613C 98.6765 47.824 102.115 50.6953 105.818 48.6071C 105.818 48.6071 112.828 44.5613 113.489 44.1697C 114.15 43.7782 115.87 42.4731 115.87 40.1239L 115.87 10.3675C 115.87 8.01827 114.812 6.45214 113.754 5.93009L 104.76 0.709665C 103.834 0.187622 103.041 0.0571117 102.247 0.0571117C 101.057 0.0571117 100.396 0.318133 99.8668 0.579154Z"/>
</defs>
</svg>
