<svg width="238" height="40" viewBox="0 0 238 40" version="1.1" xmlns="http://www.w3.org/2000/svg" xmlns:xlink="http://www.w3.org/1999/xlink">
<title>Autodom Logo (Horizontal)</title>
<desc>Created using Figma</desc>
<g id="Canvas" transform="translate(-20660 480)">
<g id="Autodom Logo (Horizontal)">
<g id="Vector">
<use xlink:href="#path0_fill" transform="matrix(0.392663 0 0 0.392662 20660 -480)" fill="#93233E"/>
<use xlink:href="#path0_fill" transform="matrix(0.392663 0 0 0.392662 20660 -480)" fill="#CF2A52"/>
</g>
<g id="Vector">
<use xlink:href="#path1_fill" transform="matrix(0.776787 0 0 0.776785 20721.8 -468.431)" fill="#FFFFFF"/>
</g>
</g>
</g>
<defs>
<path id="path0_fill" fill-rule="evenodd" d="M 21.9106 37.4726C 20.6106 38.1621 4.01061 47.618 2.11061 48.7014C 0.510606 49.5879 -0.0893926 50.8684 0.0106074 51.7549L 0.0106074 59.5363C 0.0106074 61.3093 1.0106 62.1958 1.7106 62.5898L 18.4106 71.9471C 19.3106 72.5381 19.7106 72.9321 20.1106 73.5231C 20.4106 74.1141 20.6106 74.7051 20.6106 75.7886L 20.5106 94.7003C 20.5106 95.4883 20.8106 96.7688 22.4106 97.6553L 29.2106 101.497C 30.0106 101.989 31.4106 102.088 33.0106 101.201C 34.9106 100.118 51.5106 90.6619 52.7106 89.9724C 54.3106 89.0859 54.5106 87.4114 54.5106 86.9189C 54.5106 86.4264 54.5106 80.3195 54.5106 80.3195C 54.5106 77.1676 51.2106 76.0841 49.1106 77.2661C 48.0106 77.8571 31.9106 87.1159 31.9106 87.1159L 32.0106 73.3261C 32.0106 73.3261 32.0106 71.5531 31.4106 70.5682C 31.2106 70.1742 29.8106 67.9087 29.8106 67.9087C 29.8106 67.9087 28.5106 65.6432 28.2106 65.2492C 27.6106 64.2642 26.0106 63.3778 26.0106 63.3778L 14.0106 56.6798C 14.0106 56.6798 30.1106 47.5195 31.2106 46.83C 33.3106 45.648 34.0106 42.299 31.2106 40.7231C 31.2106 40.7231 25.9106 37.6696 25.4106 37.4726C 25.1106 37.2756 24.4106 36.9801 23.6106 36.9801C 23.2106 36.9801 22.6106 37.0786 21.9106 37.4726ZM 88.2106 37.3741C 87.7106 37.6696 82.4106 40.6246 82.4106 40.6246C 79.6106 42.2005 80.3106 45.5495 82.4106 46.7315C 83.5106 47.3225 99.6106 56.5813 99.6106 56.5813L 87.6106 63.2792C 87.6106 63.2792 86.0106 64.1657 85.4106 65.1507C 85.2106 65.5447 83.8106 67.8102 83.8106 67.8102C 83.8106 67.8102 82.5106 70.0757 82.2106 70.4697C 81.6106 71.4546 81.6106 73.2276 81.6106 73.2276L 81.7106 86.8204C 81.7106 86.8204 65.6106 77.6601 64.5106 76.9706C 62.4106 75.7886 59.1106 76.8721 59.1106 80.024C 59.1106 80.024 59.1106 86.1309 59.1106 86.6234C 59.1106 87.1159 59.3106 88.7904 60.9106 89.6769C 62.2106 90.3664 78.8106 99.8223 80.7106 100.906C 82.3106 101.792 83.7106 101.694 84.5106 101.201L 91.3106 97.3598C 92.9106 96.4733 93.1106 95.1928 93.1106 94.4048L 93.0106 75.4931C 93.0106 74.5081 93.2106 73.9171 93.5106 73.2276C 93.9106 72.6366 94.3106 72.2426 95.2106 71.6516L 111.911 62.2943C 112.611 61.9003 113.611 61.0138 113.611 59.2408L 113.611 51.4594C 113.611 50.5729 113.011 49.2924 111.511 48.4059C 109.611 47.3225 93.0106 37.8666 91.7106 37.1771C 91.1106 36.7831 90.4106 36.6846 89.9106 36.6846C 89.2106 36.9801 88.5106 37.2756 88.2106 37.3741ZM 75.5106 0.437097L 59.0106 9.99147C 58.1106 10.484 57.5106 10.681 56.8106 10.681C 56.1106 10.681 55.5106 10.484 54.6106 9.99147L 38.0106 0.437097C 37.3106 0.0431028 36.0106 -0.350891 34.5106 0.535597L 27.7106 4.47554C 26.9106 4.96804 26.0106 6.05152 26.0106 7.8245L 26.0106 30.2822C 26.0106 32.1537 27.3106 33.1387 27.8106 33.3357C 28.3106 33.6311 33.6106 36.6846 33.6106 36.6846C 36.4106 38.2606 39.0106 35.9951 39.0106 33.6311C 39.0106 32.3507 39.0106 14.0299 39.0106 14.0299L 50.9106 20.9248C 50.9106 20.9248 52.5106 21.8113 53.7106 21.8113L 59.9106 21.8113C 61.1106 21.8113 62.7106 20.9248 62.7106 20.9248L 74.6106 14.0299C 74.6106 14.0299 74.6106 32.3507 74.6106 33.6311C 74.6106 36.0936 77.2106 38.2606 80.0106 36.6846C 80.0106 36.6846 85.3106 33.6311 85.8106 33.3357C 86.3106 33.0402 87.6106 32.0552 87.6106 30.2822L 87.6106 7.8245C 87.6106 6.05152 86.8106 4.86954 86.0106 4.47554L 79.2106 0.535597C 78.5106 0.141602 77.9106 0.0431032 77.3106 0.0431032C 76.4106 0.0431032 75.9106 0.2401 75.5106 0.437097Z"/>
<path id="path1_fill" fill-rule="evenodd" d="M 12.8 5.31893L 13.6 5.31893L 17.1 13.4943L 9.4 13.4943L 12.8 5.31893ZM 14.9 0.590989L 11.6 0.590989L 9.2 0.590989L 0 21.4727L 6.1 21.4727L 7.4 18.4193L 19.2 18.4193L 20.5 21.4727L 26.5 21.4727L 17.3 0.590989L 14.9 0.590989ZM 52.4 0.590989L 52.4 12.1153C 52.4 15.0703 50 17.1388 47.1 17.1388C 44.2 17.1388 41.8 15.0703 41.8 12.1153L 41.8 0.590989L 36.2 0.590989L 36.2 12.2138C 36.2 18.1238 41.1 21.9652 47.1 21.9652C 53.1 21.9652 58 18.1238 58 12.2138L 58 0.590989L 52.4 0.590989ZM 67.7 0.590989L 67.7 5.41743L 76 5.41743L 76 21.4727L 81.4 21.4727L 81.4 5.41743L 89.7 5.41743L 89.7 0.590989L 67.7 0.590989ZM 138.7 5.41743L 144.8 5.41743C 147.8 5.41743 150.1 8.17539 150.1 11.0319C 150.1 13.7898 147.8 16.3508 144.8 16.3508L 138.7 16.3508L 138.7 5.41743ZM 133 0.590989L 133 21.4727L 144.7 21.4727C 150.8 21.4727 155.7 16.8433 155.7 11.0319C 155.7 5.31893 150.8 0.590989 144.7 0.590989L 133 0.590989ZM 224.9 0.590989L 221.5 0.590989L 219.7 0.590989L 212.9 15.0703L 206.1 0.590989L 204.3 0.590989L 200.9 0.590989L 198.9 0.590989L 198.9 21.4727L 204.3 21.4727L 204.3 8.07689L 210.4 21.4727L 215.3 21.4727L 221.4 8.07689L 221.4 21.4727L 226.8 21.4727L 226.8 0.590989L 224.9 0.590989ZM 105 11.0319C 105 7.4859 107.9 4.62944 111.4 4.62944C 114.9 4.62944 117.8 7.4859 117.8 11.0319C 117.8 14.5778 114.9 17.4343 111.4 17.4343C 107.8 17.3358 105 14.4793 105 11.0319ZM 99.4 11.0319C 99.4 17.1388 104.8 22.0637 111.4 22.0637C 118 22.0637 123.3 17.1388 123.3 11.0319C 123.3 4.92494 117.9 6.01188e-06 111.4 6.01188e-06C 104.8 6.01188e-06 99.4 4.92494 99.4 11.0319ZM 170.9 11.0319C 170.9 7.4859 173.8 4.62944 177.3 4.62944C 180.8 4.62944 183.7 7.4859 183.7 11.0319C 183.7 14.5778 180.8 17.4343 177.3 17.4343C 173.8 17.3358 170.9 14.4793 170.9 11.0319ZM 165.4 11.0319C 165.4 17.1388 170.8 22.0637 177.4 22.0637C 184 22.0637 189.3 17.1388 189.3 11.0319C 189.3 4.92494 183.9 6.01188e-06 177.4 6.01188e-06C 170.7 6.01188e-06 165.4 4.92494 165.4 11.0319Z"/>
</defs>
</svg>
