<svg width="153" height="26" viewBox="0 0 153 26" version="1.1" xmlns="http://www.w3.org/2000/svg" xmlns:xlink="http://www.w3.org/1999/xlink">
<title>Autodom Logo (Horizontal)</title>
<desc>Created using Figma</desc>
<g id="Canvas" transform="translate(560 -9292)">
<g id="Autodom Logo (Horizontal)">
<g id="Group">
<g id="Group">
<g id="Group">
<g id="Group">
<g id="Vector">
<use xlink:href="#path0_fill" transform="matrix(0.392663 0 0 0.392662 -560 9292)" fill="#93233E"/>
</g>
</g>
<g id="Group">
<g id="Vector">
<use xlink:href="#path1_fill" transform="matrix(0.776787 0 0 0.776785 -520.255 9299.52)"/>
</g>
</g>
</g>
</g>
</g>
</g>
</g>
<defs>
<path id="path0_fill" fill-rule="evenodd" d="M 14.0854 24.3572C 13.2496 24.8054 2.57824 30.9517 1.35682 31.6559C 0.328246 32.2322 -0.0574666 33.0645 0.00681902 33.6407L 0.00681902 38.6986C 0.00681902 39.851 0.649673 40.4272 1.09967 40.6833L 11.8354 46.7656C 12.4139 47.1498 12.6711 47.4059 12.9282 47.79C 13.1211 48.1742 13.2496 48.5583 13.2496 49.2626L 13.1854 61.5552C 13.1854 62.0674 13.3782 62.8997 14.4068 63.4759L 18.7782 65.9729C 19.2925 66.293 20.1925 66.357 21.2211 65.7808C 22.4425 65.0765 33.1139 58.9302 33.8853 58.4821C 34.9139 57.9058 35.0425 56.8174 35.0425 56.4973C 35.0425 56.1772 35.0425 52.2077 35.0425 52.2077C 35.0425 50.1589 32.921 49.4547 31.571 50.2229C 30.8639 50.6071 20.5139 56.6254 20.5139 56.6254L 20.5782 47.662C 20.5782 47.662 20.5782 46.5095 20.1925 45.8693C 20.0639 45.6132 19.1639 44.1406 19.1639 44.1406C 19.1639 44.1406 18.3282 42.6681 18.1353 42.412C 17.7496 41.7718 16.7211 41.1955 16.7211 41.1955L 9.0068 36.8419C 9.0068 36.8419 19.3568 30.8876 20.0639 30.4395C 21.4139 29.6712 21.8639 27.4944 20.0639 26.47C 20.0639 26.47 16.6568 24.4852 16.3354 24.3572C 16.1425 24.2291 15.6925 24.0371 15.1782 24.0371C 14.9211 24.0371 14.5354 24.1011 14.0854 24.3572ZM 56.7067 24.2932C 56.3853 24.4852 52.9781 26.406 52.9781 26.406C 51.1781 27.4303 51.6281 29.6072 52.9781 30.3755C 53.6853 30.7596 64.0353 36.7779 64.0353 36.7779L 56.321 41.1315C 56.321 41.1315 55.2924 41.7077 54.9067 42.348C 54.7781 42.6041 53.8781 44.0766 53.8781 44.0766C 53.8781 44.0766 53.0424 45.5492 52.8496 45.8053C 52.4638 46.4455 52.4639 47.598 52.4639 47.598L 52.5281 56.4333C 52.5281 56.4333 42.1782 50.479 41.471 50.0309C 40.121 49.2626 37.9996 49.9668 37.9996 52.0156C 37.9996 52.0156 37.9996 55.9851 37.9996 56.3052C 37.9996 56.6254 38.1282 57.7138 39.1567 58.29C 39.9925 58.7382 50.6639 64.8845 51.8853 65.5887C 52.9138 66.165 53.8138 66.1009 54.3281 65.7808L 58.6996 63.2839C 59.7281 62.7076 59.8567 61.8753 59.8567 61.3631L 59.7924 49.0705C 59.7924 48.4303 59.921 48.0461 60.1138 47.598C 60.371 47.2138 60.6281 46.9577 61.2067 46.5736L 71.9424 40.4913C 72.3924 40.2352 73.0352 39.659 73.0352 38.5065L 73.0352 33.4486C 73.0352 32.8724 72.6495 32.0401 71.6852 31.4639C 70.4638 30.7596 59.7924 24.6133 58.9567 24.1651C 58.571 23.909 58.121 23.845 57.7995 23.845C 57.3496 24.0371 56.8996 24.2291 56.7067 24.2932ZM 48.5424 0.284113L 37.9353 6.49446C 37.3567 6.81458 36.971 6.94262 36.521 6.94262C 36.071 6.94262 35.6853 6.81458 35.1067 6.49446L 24.4353 0.284113C 23.9853 0.0280168 23.1496 -0.228079 22.1853 0.348138L 17.8139 2.9091C 17.2996 3.22922 16.7211 3.93349 16.7211 5.08592L 16.7211 19.6834C 16.7211 20.8999 17.5568 21.5401 17.8782 21.6682C 18.1996 21.8602 21.6068 23.845 21.6068 23.845C 23.4068 24.8694 25.0782 23.3968 25.0782 21.8602C 25.0782 21.0279 25.0782 9.11944 25.0782 9.11944L 32.7282 13.6011C 32.7282 13.6011 33.7567 14.1774 34.5282 14.1774L 38.5139 14.1774C 39.2853 14.1774 40.3139 13.6011 40.3139 13.6011L 47.9639 9.11944C 47.9639 9.11944 47.9639 21.0279 47.9639 21.8602C 47.9639 23.4608 49.6353 24.8694 51.4353 23.845C 51.4353 23.845 54.8424 21.8602 55.1638 21.6682C 55.4853 21.4761 56.321 20.8359 56.321 19.6834L 56.321 5.08592C 56.321 3.93349 55.8067 3.1652 55.2924 2.9091L 50.921 0.348138C 50.471 0.0920412 50.0853 0.0280171 49.6996 0.0280171C 49.121 0.0280171 48.7996 0.156065 48.5424 0.284113Z"/>
<path id="path1_fill" fill-rule="evenodd" d="M 8.22855 3.4573L 8.74284 3.4573L 10.9928 8.77131L 6.04284 8.77131L 8.22855 3.4573ZM 9.57855 0.384143L 7.45713 0.384143L 5.91427 0.384143L 0 13.9573L 3.92142 13.9573L 4.75713 11.9725L 12.3428 11.9725L 13.1785 13.9573L 17.0357 13.9573L 11.1214 0.384143L 9.57855 0.384143ZM 33.6856 0.384143L 33.6856 7.87496C 33.6856 9.79569 32.1428 11.1402 30.2785 11.1402C 28.4142 11.1402 26.8714 9.79569 26.8714 7.87496L 26.8714 0.384143L 23.2714 0.384143L 23.2714 7.93899C 23.2714 11.7804 26.4214 14.2774 30.2785 14.2774C 34.1356 14.2774 37.2856 11.7804 37.2856 7.93899L 37.2856 0.384143L 33.6856 0.384143ZM 43.5213 0.384143L 43.5213 3.52133L 48.857 3.52133L 48.857 13.9573L 52.3285 13.9573L 52.3285 3.52133L 57.6642 3.52133L 57.6642 0.384143L 43.5213 0.384143ZM 89.1641 3.52133L 93.0855 3.52133C 95.0141 3.52133 96.4927 5.314 96.4927 7.1707C 96.4927 8.96338 95.0141 10.628 93.0855 10.628L 89.1641 10.628L 89.1641 3.52133ZM 85.4998 0.384143L 85.4998 13.9573L 93.0212 13.9573C 96.9426 13.9573 100.093 10.9481 100.093 7.1707C 100.093 3.4573 96.9426 0.384143 93.0212 0.384143L 85.4998 0.384143ZM 144.578 0.384143L 142.393 0.384143L 141.235 0.384143L 136.864 9.79569L 132.493 0.384143L 131.335 0.384143L 129.15 0.384143L 127.864 0.384143L 127.864 13.9573L 131.335 13.9573L 131.335 5.24998L 135.257 13.9573L 138.407 13.9573L 142.328 5.24998L 142.328 13.9573L 145.8 13.9573L 145.8 0.384143L 144.578 0.384143ZM 67.4999 7.1707C 67.4999 4.86584 69.3641 3.00914 71.6141 3.00914C 73.8641 3.00914 75.7284 4.86584 75.7284 7.1707C 75.7284 9.47557 73.8641 11.3323 71.6141 11.3323C 69.2999 11.2682 67.4999 9.41155 67.4999 7.1707ZM 63.8999 7.1707C 63.8999 11.1402 67.3713 14.3414 71.6141 14.3414C 75.857 14.3414 79.2641 11.1402 79.2641 7.1707C 79.2641 3.20121 75.7927 3.90772e-06 71.6141 3.90772e-06C 67.3713 3.90772e-06 63.8999 3.20121 63.8999 7.1707ZM 109.864 7.1707C 109.864 4.86584 111.728 3.00914 113.978 3.00914C 116.228 3.00914 118.093 4.86584 118.093 7.1707C 118.093 9.47557 116.228 11.3323 113.978 11.3323C 111.728 11.2682 109.864 9.41155 109.864 7.1707ZM 106.328 7.1707C 106.328 11.1402 109.8 14.3414 114.043 14.3414C 118.285 14.3414 121.693 11.1402 121.693 7.1707C 121.693 3.20121 118.221 3.90772e-06 114.043 3.90772e-06C 109.735 3.90772e-06 106.328 3.20121 106.328 7.1707Z"/>
</defs>
</svg>
